<svg id="Capa_1" enable-background="new 0 0 512.053 512.053" height="512" viewBox="0 0 512.053 512.053" width="512" xmlns="http://www.w3.org/2000/svg"><g><path d="m363.993 504.526h-215.933c-4.418 0-8-3.582-8-8v-30.133h231.933v30.133c0 4.419-3.582 8-8 8z" fill="#d0e2ed"/><path d="m348.993 466.393v30.133c0 4.418-3.582 8-8 8h23c4.418 0 8-3.582 8-8v-30.133z" fill="#aabfcf"/><path d="m189.043 7.706-63.088 15.772c-1.605.401-3.053 1.274-4.157 2.505l-112.502 125.421c-2.398 3.052-2.355 7.359.102 10.363l66.882 78.892c3.103 3.793 8.803 4.077 12.268.612l24.702-24.702c3.78-3.78 10.243-1.103 10.243 4.243v242.298c0 4.575 3.709 8.283 8.283 8.283h248.5c4.575 0 8.283-3.709 8.283-8.283v-242.298c0-5.345 6.463-8.022 10.243-4.243l24.702 24.702c3.465 3.465 9.165 3.181 12.268-.612l66.882-78.892c2.458-3.004 2.5-7.311.102-10.363l-112.501-125.421c-1.104-1.231-2.552-2.104-4.157-2.505l-63.088-15.772c-.476-.119-.965-.179-1.455-.179h-131.057c-.49-.001-.979.06-1.455.179z" fill="#118df0"/><path d="m502.756 151.404-112.501-125.421c-1.105-1.231-2.552-2.104-4.157-2.505l-29.532-7.383c1.521.423 2.896 1.26 3.951 2.437l112.502 125.421c2.398 3.052 2.355 7.359-.102 10.363l-58.997 64.536c-2.974 3.635-8.327 4.038-11.819 1.015l21.404 21.404c3.465 3.465 9.165 3.181 12.268-.612l66.882-78.892c2.457-3.004 2.499-7.311.101-10.363z" fill="#1179f0"/><g fill="#d0e2ed"><path d="m9.399 161.767 66.882 78.892c3.103 3.793 8.803 4.077 12.268.612l23.249-23.249-78.839-92.997-23.663 26.379c-2.397 3.052-2.355 7.359.103 10.363z"/><path d="m400.256 218.022 23.249 23.249c3.465 3.465 9.165 3.181 12.268-.612l66.882-78.892c2.457-3.004 2.5-7.311.102-10.363l-23.662-26.379z"/><path d="m388.56 463.11v-289.917l-39.996 39.995c-6.214 6.214-9.704 14.641-9.704 23.429v234.776h41.417c4.574 0 8.283-3.708 8.283-8.283z"/><path d="m163.489 213.189-39.996-39.995v289.916c0 4.575 3.709 8.283 8.283 8.283h41.417v-234.776c0-8.787-3.491-17.215-9.704-23.428z"/></g><path d="m502.756 151.404-112.501-125.421c-1.105-1.231-2.552-2.104-4.157-2.505l-29.532-7.383c1.521.423 2.896 1.26 3.951 2.437l112.502 125.421c2.398 3.052 2.355 7.359-.102 10.363l-58.997 64.536c-2.974 3.635-8.327 4.038-11.819 1.015l21.404 21.404c3.465 3.465 9.165 3.181 12.268-.612l66.882-78.892c2.457-3.004 2.499-7.311.101-10.363z" fill="#1179f0"/><path d="m502.756 151.404-23.662-26.379-11.202 13.213 5.126 5.714c2.398 3.052 2.355 7.359-.102 10.363l-58.997 64.536c-2.974 3.635-8.327 4.038-11.819 1.015l21.404 21.404c3.465 3.465 9.165 3.181 12.268-.612l66.882-78.892c2.458-3.003 2.5-7.31.102-10.362z" fill="#aabfcf"/><g><path d="m388.56 173.193-29.738 29.738v260.187c0 4.519-3.62 8.186-8.118 8.275h29.572c4.575 0 8.283-3.708 8.283-8.283v-289.917z" fill="#aabfcf"/></g><path d="m426.81 104.38 18.71-16.781-22.122-24.666-18.71 16.781c-3.289 2.95-3.564 8.008-.614 11.297l11.439 12.755c2.95 3.289 8.008 3.564 11.297.614z" fill="#d0e2ed"/><path d="m198.326 123.493h-17.133c-4.418 0-8-3.582-8-8v-17.133c0-4.418 3.582-8 8-8h17.133c4.418 0 8 3.582 8 8v17.133c0 4.418-3.581 8-8 8z" fill="#d0e2ed"/><path d="m330.86 123.493h-83.4c-4.418 0-8-3.582-8-8v-17.133c0-4.418 3.582-8 8-8h83.4c4.418 0 8 3.582 8 8v17.133c0 4.418-3.582 8-8 8z" fill="#d0e2ed"/><path d="m419.492 64.428h17.161v33.133h-17.161z" fill="#aabfcf" transform="matrix(.744 -.668 .668 .744 55.331 306.537)"/><path d="m189.782 7.57 7.387 14.774c5.613 11.225 17.085 18.316 29.635 18.316h58.445c12.55 0 24.023-7.091 29.635-18.316l7.387-14.774c-.238-.029-.477-.044-.717-.044h-131.056c-.239 0-.479.016-.716.044z" fill="#d0e2ed"/><path d="m330.86 123.493h-83.4c-4.418 0-8-3.582-8-8v-17.133c0-4.418 3.582-8 8-8h83.4c4.418 0 8 3.582 8 8v17.133c0 4.418-3.582 8-8 8z" fill="#d0e2ed"/><path d="m330.86 90.36h-23c4.418 0 8 3.582 8 8v17.133c0 4.418-3.582 8-8 8h23c4.418 0 8-3.582 8-8v-17.133c0-4.419-3.582-8-8-8z" fill="#aabfcf"/></g><g><path d="m508.654 146.77c-.101-.128-.206-.253-.314-.374l-77.928-86.878-1.429-1.593c-.001-.001-.001-.001-.001-.001l-33.143-36.949c-2.112-2.355-4.852-4.005-7.922-4.773l-63.677-15.92c-.013-.004-.026-.006-.04-.01l-.088-.022c-.035-.009-.07-.011-.105-.02-.236-.056-.472-.1-.709-.132-.07-.01-.141-.016-.212-.024-.222-.023-.443-.037-.664-.041-.043-.001-.086-.008-.129-.008h-132.533c-.042 0-.083.007-.124.008-.224.004-.447.017-.672.041-.069.008-.138.014-.207.023-.239.032-.477.077-.714.133-.034.008-.068.011-.102.019l-.086.021c-.014.004-.029.007-.043.011l-63.676 15.919c-3.07.768-5.809 2.418-7.921 4.773l-112.502 125.423c-.109.121-.213.246-.314.374-4.604 5.859-4.523 13.979.195 19.746.028.034.056.067.084.101l66.847 78.852c2.818 3.409 6.961 5.489 11.381 5.709 4.438.217 8.799-1.457 11.945-4.604l22.142-22.142v54.094c0 4.142 3.358 7.5 7.5 7.5s7.5-3.358 7.5-7.5v-72.2-15.026l27.192 27.192c4.841 4.842 7.508 11.279 7.508 18.126v227.276h-25.633-8.283c-.432 0-.783-.352-.783-.783v-154.859c0-4.142-3.358-7.5-7.5-7.5s-7.5 3.358-7.5 7.5v154.858c0 8.703 7.08 15.783 15.783 15.783h.783v17.633c0 8.547 6.953 15.5 15.5 15.5h161.234c4.142 0 7.5-3.358 7.5-7.5s-3.358-7.5-7.5-7.5h-161.234c-.276 0-.5-.224-.5-.5v-17.633h216.934v17.633c0 .276-.224.5-.5.5h-25.134c-4.142 0-7.5 3.358-7.5 7.5s3.358 7.5 7.5 7.5h25.134c8.547 0 15.5-6.953 15.5-15.5v-17.633h.783c8.703 0 15.783-7.081 15.783-15.783v-238.677l22.141 22.141c3.147 3.147 7.5 4.824 11.945 4.604 4.42-.22 8.563-2.3 11.381-5.709l66.847-78.852c.028-.033.056-.067.084-.101 4.719-5.767 4.799-13.887.196-19.746zm-86.851-47.974c-.205.186-.523.167-.707-.038l-11.439-12.754c-.184-.206-.167-.522.038-.707l13.128-11.773 12.107 13.499zm-111.645-83.77-1.982 3.963c-4.371 8.74-13.156 14.17-22.927 14.17h-58.445c-9.771 0-18.557-5.43-22.927-14.169l-1.982-3.964zm-226.913 220.942c-.163.163-.364.241-.592.228-.231-.012-.422-.108-.568-.287-.027-.033-.055-.067-.083-.1l-66.816-78.816c-.191-.253-.211-.589-.056-.859l17.67-19.699 68.811 81.168zm85.547-28.083-37.798-37.799v-13.46c0-4.142-3.358-7.5-7.5-7.5s-7.5 3.358-7.5 7.5v16.564.005 30.024l-3.741 3.741-69.344-81.796 84.473-94.174c.104-.117.24-.199.393-.237l57.967-14.492 4.719 9.437c6.928 13.854 20.854 22.461 36.343 22.461h58.445c15.49 0 29.415-8.606 36.343-22.461l4.719-9.437 57.967 14.492c.153.038.288.12.393.237l28.136 31.367-13.126 11.773c-3.083 2.765-4.904 6.563-5.128 10.698-.225 4.134 1.174 8.108 3.938 11.191l11.44 12.755c3.057 3.408 7.293 5.144 11.546 5.144 3.687 0 7.387-1.305 10.341-3.954l13.129-11.775 24.197 26.976-69.344 81.797-3.741-3.741v-30.024c0-.002 0-.003 0-.005v-16.564c0-4.142-3.358-7.5-7.5-7.5s-7.5 3.358-7.5 7.5v13.46l-37.798 37.799c-7.675 7.675-11.901 17.878-11.901 28.732v227.276h-150.667v-227.278c0-10.853-4.227-21.057-11.901-28.732zm212.268 255.225c0 .432-.352.783-.783.783h-8.283-25.634v-227.276c0-6.847 2.666-13.284 7.508-18.126l27.192-27.191v15.027zm115.808-306.117-66.816 78.816c-.028.033-.056.067-.083.1-.147.179-.337.275-.568.287-.233.006-.429-.066-.592-.229l-18.365-18.365 68.811-81.168 17.67 19.699c.154.271.135.607-.057.86z"/><path d="m198.326 130.993c8.547 0 15.5-6.953 15.5-15.5v-17.133c0-8.547-6.953-15.5-15.5-15.5h-17.133c-8.547 0-15.5 6.953-15.5 15.5v17.133c0 8.547 6.953 15.5 15.5 15.5zm-17.633-15.5v-17.133c0-.276.224-.5.5-.5h17.133c.276 0 .5.224.5.5v17.133c0 .276-.224.5-.5.5h-17.133c-.276 0-.5-.224-.5-.5z"/><path d="m247.46 130.993h83.4c8.547 0 15.5-6.953 15.5-15.5v-17.133c0-8.547-6.953-15.5-15.5-15.5h-83.4c-8.547 0-15.5 6.953-15.5 15.5v17.133c0 8.547 6.953 15.5 15.5 15.5zm-.5-32.633c0-.276.224-.5.5-.5h83.4c.276 0 .5.224.5.5v17.133c0 .276-.224.5-.5.5h-83.4c-.276 0-.5-.224-.5-.5z"/><path d="m198.826 156.627c0 4.142 3.358 7.5 7.5 7.5h9.067v91.9c0 4.142 3.358 7.5 7.5 7.5s7.5-3.358 7.5-7.5v-99.4c0-4.142-3.358-7.5-7.5-7.5h-16.567c-4.142 0-7.5 3.357-7.5 7.5z"/><path d="m280.877 149.127c-17.838 0-32.35 14.512-32.35 32.35v49.7c0 17.838 14.512 32.35 32.35 32.35s32.35-14.512 32.35-32.35v-49.7c0-17.838-14.513-32.35-32.35-32.35zm17.35 82.049c0 9.567-7.783 17.35-17.35 17.35s-17.35-7.783-17.35-17.35v-49.7c0-9.567 7.783-17.35 17.35-17.35s17.35 7.783 17.35 17.35z"/></g></svg>